#!OML:ASF X:\für Bonn\!DataBase\2005_08_11_Bastian_Final\c3d\Bastian.ASF
:FULLY-SPECIFIED
:DEGREES
157
root -0.561673 18.0351 -9.2752 176.195 -60.2362 -189.454
lowerback 11.4 -5.4862 -2.21301
upperback 3.56447 -7.7197 1.37658
thorax -2.13522 -3.96001 3.63873
lowerneck 7.18782 -14.3576 -8.32841
upperneck -12.0037 -19.0216 14.9864
head -2.42485 -10.0162 6.27676
rclavicle 1.56394e-013 7.95139e-015
rhumerus -166.801 -174.972 158.98
rradius 112.183
rwrist -146.367
rhand -9.83827 11.3655
rfingers 7.12502
rthumb 16.1394 -17.9825
lclavicle 1.56394e-013 7.95139e-015
lhumerus 82.9566 -13.1413 49.1073
lradius 59.6813
lwrist 222.037
lhand -14.6167 25.7499
lfingers 7.12502
lthumb 11.5345 55.4125
rfemur 1.86265 -1.12404 15.9104
rtibia 33.0669
rfoot -16.3821 -18.502
rtoes 5.7383
lfemur 4.17084 4.4609 -7.34977
ltibia 34.7504
lfoot 11.6815 -6.34737
ltoes -39.9551
158
root -0.533306 18.0126 -9.26547 175.884 -60.2999 -189.149
lowerback 11.5095 -5.45119 -1.98918
upperback 3.63991 -7.65543 1.44126
thorax -2.14096 -3.93187 3.58381
lowerneck 7.18551 -14.3816 -8.19543
upperneck -12.2862 -19.0245 15.017
head -2.51761 -10.0305 6.28663
rclavicle 1.50381e-013 -5.08889e-014
rhumerus -168.704 -176.504 158.117
rradius 113.753
rwrist -146.402
rhand -9.39784 11.2191
rfingers 7.12502
rthumb 16.5634 -18.094
lclavicle 1.50381e-013 -5.08889e-014
lhumerus 81.7899 -14.0752 48.6584
lradius 61.2076
lwrist 222.188
lhand -15.0027 25.7537
lfingers 7.12502
lthumb 11.1621 55.4368
rfemur 1.75912 -1.54888 16.0222
rtibia 33.1405
rfoot -16.4415 -18.2722
rtoes 5.61708
lfemur 3.95419 4.38134 -7.20441
ltibia 35.0903
lfoot 11.2423 -6.32327
ltoes -39.8869
159
root -0.504674 17.9891 -9.25201 175.554 -60.3452 -188.811
lowerback 11.6071 -5.41738 -1.73169
upperback 3.73305 -7.58987 1.51441
thorax -2.12459 -3.90431 3.51625
lowerneck 7.08464 -14.4087 -8.0804
upperneck -12.525 -19.0318 15.0532
head -2.57863 -10.0442 6.28846
rclavicle -6.93262e-014 -7.95139e-015
rhumerus -170.615 -178.062 157.151
rradius 115.134
rwrist -146.355
rhand -8.89068 11.0233
rfingers 7.12502
rthumb 17.0517 -18.2483
lclavicle -6.93262e-014 -7.95139e-015
lhumerus 80.6193 -15.0263 48.1874
lradius 62.7915
lwrist 222.177
lhand -15.3428 25.6136
lfingers 7.12502
lthumb 10.8341 55.3142
rfemur 1.63105 -1.91258 16.1519
rtibia 33.2161
rfoot -16.5446 -18.0649
rtoes 5.59241
lfemur 3.72124 4.32973 -7.0436
ltibia 35.4398
lfoot 10.8049 -6.32753
ltoes -39.883
160
root -0.476819 17.9666 -9.23597 175.165 -60.3719 -188.416
lowerback 11.719 -5.38118 -1.42503
upperback 3.83593 -7.51663 1.59391
thorax -2.11117 -3.87322 3.42828
lowerneck 6.95878 -14.4384 -7.9385
upperneck -12.7872 -19.0397 15.0677
head -2.64761 -10.0583 6.28028
rclavicle -9.323e-014 -2.38542e-014
rhumerus -172.533 -179.595 156.065
rradius 116.289
rwrist -146.286
rhand -8.39781 10.6471
rfingers 7.12502
rthumb 17.526 -18.5829
lclavicle -9.323e-014 -2.38542e-014
lhumerus 79.411 -16.0713 47.7792
lradius 64.3479
lwrist 222.091
lhand -15.7037 25.4613
lfingers 7.12502
lthumb 10.486 55.1798
rfemur 1.51425 -2.18634 16.3295
rtibia 33.2863
rfoot -16.6469 -17.9253
rtoes 5.65993
lfemur 3.49471 4.23571 -6.8857
ltibia 35.8015
lfoot 10.353 -6.26037
ltoes -40.0452
161
root -0.447774 17.9443 -9.21875 174.765 -60.3823 -188.002
lowerback 11.8612 -5.35532 -1.13096
upperback 3.90765 -7.45648 1.69536
thorax -2.14057 -3.84714 3.37674
lowerneck 6.91314 -14.439 -7.84979
upperneck -13.0744 -19.015 15.0918
head -2.73445 -10.0568 6.29155
rclavicle 4.4329e-014 -4.45278e-014
rhumerus -174.44 -181.257 154.913
rradius 117.31
rwrist -146.137
rhand -8.05205 10.3418
rfingers 7.12502
rthumb 17.8588 -18.8582
lclavicle 4.4329e-014 -4.45278e-014
lhumerus 78.0802 -17.1835 47.3148
lradius 65.93
lwrist 222.067
lhand -15.9111 25.2232
lfingers 7.12502
lthumb 10.2859 54.9517
rfemur 1.37224 -2.42815 16.5288
rtibia 33.3672
rfoot -16.7393 -17.8114
rtoes 5.7073
lfemur 3.26144 4.15088 -6.71425
ltibia 36.1659
lfoot 9.89356 -6.2162
ltoes -40.2021
162
root -0.419309 17.9216 -9.2 174.277 -60.3747 -187.502
lowerback 11.982 -5.32255 -0.769383
upperback 4.0226 -7.38253 1.797
thorax -2.12185 -3.81653 3.28114
lowerneck 6.75828 -14.465 -7.67662
upperneck -13.3461 -19.0171 15.0683
head -2.80962 -10.0671 6.26741
rclavicle -6.12257e-014 -1.90833e-014
rhumerus -176.364 -182.907 153.632
rradius 118.141
rwrist -145.868
rhand -7.77979 9.98871
rfingers 7.12502
rthumb 18.1207 -19.1872
lclavicle -6.12257e-014 -1.90833e-014
lhumerus 76.7934 -18.3233 46.7283
lradius 67.5177
lwrist 222.219
lhand -16.0498 24.9431
lfingers 7.12502
lthumb 10.1521 54.6782
rfemur 1.24107 -2.66996 16.7723
rtibia 33.4558
rfoot -16.7813 -17.7121
rtoes 5.71012
lfemur 3.05097 4.03329 -6.51257
ltibia 36.5265
lfoot 9.44339 -6.13554
ltoes -40.4111
163
root -0.390841 17.8994 -9.18078 173.83 -60.3369 -187.053
lowerback 12.1123 -5.27718 -0.438608
upperback 4.13599 -7.29528 1.89419
thorax -2.10654 -3.77914 3.19691
lowerneck 6.65021 -14.4842 -7.56726
upperneck -13.6702 -19.0115 15.1388
head -2.89229 -10.0799 6.28542
rclavicle -1.31397e-013 4.13472e-014
rhumerus -178.313 -184.652 152.205
rradius 118.814
rwrist -145.457
rhand -7.69417 9.72456
rfingers 7.12502
rthumb 18.2031 -19.4437
lclavicle -1.31397e-013 4.13472e-014
lhumerus 75.5283 -19.5457 46.0385
lradius 69.0318
lwrist 222.506
lhand -16.1526 24.7116
lfingers 7.12502
lthumb 10.053 54.4515
rfemur 1.0941 -2.8203 17.0047
rtibia 33.5688
rfoot -16.8735 -17.6367
rtoes 5.78752
lfemur 2.85261 3.94716 -6.34354
ltibia 36.8804
lfoot 8.98459 -6.0592
ltoes -40.6104
164
root -0.363533 17.8787 -9.16042 173.32 -60.2655 -186.512
lowerback 12.2284 -5.24042 -0.0701197
upperback 4.23667 -7.21424 2.02512
thorax -2.09564 -3.74475 3.12662
lowerneck 6.52412 -14.4974 -7.44562
upperneck -13.9701 -19.0021 15.1276
head -2.97555 -10.085 6.27629
rclavicle 7.15625e-015 -1.74931e-014
rhumerus -180.274 -186.499 150.7
rradius 119.323
rwrist -144.947
rhand -7.60584 9.55425
rfingers 7.12502
rthumb 18.2881 -19.606
lclavicle 7.15625e-015 -1.74931e-014
lhumerus 74.2239 -20.8168 45.3072
lradius 70.5055
lwrist 222.899
lhand -16.2004 24.4679
lfingers 7.12502
lthumb 10.0068 54.2101
rfemur 0.909882 -3.01817 17.2736
rtibia 33.6993
rfoot -16.8985 -17.5443
rtoes 5.75078
lfemur 2.65959 3.8281 -6.13926
ltibia 37.2306
lfoot 8.5142 -5.9353
ltoes -40.6645
165
root -0.335878 17.8571 -9.13926 172.825 -60.1781 -185.988
lowerback 12.3274 -5.20261 0.307745
upperback 4.36475 -7.13354 2.14042
thorax -2.04904 -3.71158 3.03104
lowerneck 6.37419 -14.5007 -7.32211
upperneck -14.319 -18.9748 15.1781
head -3.06501 -10.0874 6.28587
rclavicle 4.76089e-014 -3.65764e-014
rhumerus -182.199 -188.341 149.036
rradius 119.633
rwrist -144.436
rhand -7.54452 9.51483
rfingers 7.12502
rthumb 18.3471 -19.6399
lclavicle 4.76089e-014 -3.65764e-014
lhumerus 72.9485 -22.1652 44.6081
lradius 71.8861
lwrist 223.231
lhand -16.3378 24.2403
lfingers 7.12502
lthumb 9.87426 53.9888
rfemur 0.735156 -3.21102 17.5328
rtibia 33.8163
rfoot -16.9101 -17.4239
rtoes 5.661
lfemur 2.48273 3.70288 -5.95069
ltibia 37.5532
lfoot 8.09278 -5.79442
ltoes -40.5398
166
root -0.308659 17.835 -9.11751 172.331 -60.0638 -185.475
lowerback 12.4344 -5.16583 0.650999
upperback 4.49696 -7.05969 2.29074
thorax -1.99243 -3.68317 2.9917
lowerneck 6.21253 -14.4933 -7.28104
upperneck -14.6952 -18.9397 15.2421
head -3.15194 -10.084 6.31057
rclavicle 7.16619e-014 1.59028e-015
rhumerus -184.099 -190.185 147.265
rradius 119.664
rwrist -143.908
rhand -7.37821 9.58228
rfingers 7.12502
rthumb 18.507 -19.5573
lclavicle 7.16619e-014 1.59028e-015
lhumerus 71.6275 -23.5585 44.0336
lradius 73.1369
lwrist 223.515
lhand -16.593 24.0273
lfingers 7.12502
lthumb 9.62805 53.7873
rfemur 0.557914 -3.34941 17.8023
rtibia 33.943
rfoot -16.8985 -17.3468
rtoes 5.58819
lfemur 2.33285 3.53415 -5.78469
ltibia 37.8769
lfoot 7.62639 -5.58457
ltoes -40.1593
